<?xml version="1.0" encoding="UTF-8" standalone="no"?>
<!-- (c) 2025 Scot Watson  All Rights Reserved -->
<svg viewBox="0 0 1 1" version="1.1" xmlns="http://www.w3.org/2000/svg" xmlns:svg="http://www.w3.org/2000/svg">
  <path style="fill:black;fill-rule:evenodd;stroke:none" d="
M  0.500  0.265
a  0.235  0.235 0 0 0 -0.043  0.004
l -0.015  0.072
a  0.177  0.177 0 0 0 -0.057  0.031
l -0.074 -0.023
a  0.235  0.235 0 0 0 -0.043  0.071
l  0.058  0.049
a  0.177  0.177 0 0 0 -0.003  0.031
a  0.177  0.177 0 0 0  0.003  0.031
l -0.058  0.049
a  0.235  0.235 0 0 0  0.043  0.071
l  0.074 -0.023
a  0.177  0.177 0 0 0  0.057  0.031
l  0.015  0.072
a  0.235  0.235 0 0 0  0.043  0.004
a  0.235  0.235 0 0 0  0.043 -0.004
l  0.015 -0.072
a  0.177  0.177 0 0 0  0.057 -0.031
l  0.074  0.023
a  0.235  0.235 0 0 0  0.043 -0.071
l -0.058 -0.049
a  0.177  0.177 0 0 0  0.003 -0.031
a  0.177  0.177 0 0 0 -0.003 -0.031
l  0.058 -0.049
a  0.235  0.235 0 0 0 -0.043 -0.071
l -0.074  0.023
a  0.177  0.177 0 0 0 -0.057 -0.031
l -0.015 -0.072
a  0.235  0.235 0 0 0 -0.043 -0.004
z
M  0.500  0.410
a  0.090  0.090 0 0 0 -0.090  0.090
a  0.090  0.090 0 0 0  0.090  0.090
a  0.090  0.090 0 0 0  0.090 -0.090
a  0.090  0.090 0 0 0 -0.090 -0.090
z
" />
</svg>
